HIERARCHY
ROOT root
{
  OFFSET 0 93.2929 0
  CHANNELS 6 Xposition Yposition Zposition Zrotation Xrotation Yrotation
  JOINT torso_1
  {
    OFFSET 0 5.07867 -1.15138
    CHANNELS 6 Xposition Yposition Zposition Zrotation Xrotation Yrotation
    JOINT torso_2
    {
      OFFSET 0 5.61661 1.07143
      CHANNELS 6 Xposition Yposition Zposition Zrotation Xrotation Yrotation
      JOINT torso_3
      {
        OFFSET -1.02604e-17 5.98978 0.11501
        CHANNELS 6 Xposition Yposition Zposition Zrotation Xrotation Yrotation
        JOINT torso_4
        {
          OFFSET -1.10457e-17 6.50583 -0.443523
          CHANNELS 6 Xposition Yposition Zposition Zrotation Xrotation Yrotation
          JOINT torso_5
          {
            OFFSET -1.97295e-17 7.60548 -1.50593
            CHANNELS 6 Xposition Yposition Zposition Zrotation Xrotation Yrotation
            JOINT torso_6
            {
              OFFSET -2.53307e-17 9.49737 -0.914492
              CHANNELS 6 Xposition Yposition Zposition Zrotation Xrotation Yrotation
              JOINT torso_7
              {
                OFFSET -2.90401e-17 10.5513 1.57691
                CHANNELS 6 Xposition Yposition Zposition Zrotation Xrotation Yrotation
                JOINT neck_1
                {
                  OFFSET -1.29193e-17 4.78644 0.715339
                  CHANNELS 6 Xposition Yposition Zposition Zrotation Xrotation Yrotation
                  JOINT neck_2
                  {
                    OFFSET -1.8116e-17 4.82109 0.421791
                    CHANNELS 6 Xposition Yposition Zposition Zrotation Xrotation Yrotation
                    JOINT head
                    {
                      OFFSET -2.00958e-17 4.83041 0.765062
                      CHANNELS 6 Xposition Yposition Zposition Zrotation Xrotation Yrotation
                      End Site
                      {
                        OFFSET 0 0.1 0
                      }
                    }
                  }
                }
                JOINT l_shoulder
                {
                  OFFSET 1.23299 -7.60731 7.53374
                  CHANNELS 6 Xposition Yposition Zposition Zrotation Xrotation Yrotation
                  JOINT l_up_arm
                  {
                    OFFSET 12.9547 3.2495 -3.26872
                    CHANNELS 6 Xposition Yposition Zposition Zrotation Xrotation Yrotation
                    JOINT l_low_arm
                    {
                      OFFSET 29.2081 0.0598081 0.137039
                      CHANNELS 6 Xposition Yposition Zposition Zrotation Xrotation Yrotation
                      JOINT l_hand
                      {
                        OFFSET 24.234 0.0496219 0.113701
                        CHANNELS 6 Xposition Yposition Zposition Zrotation Xrotation Yrotation
                        End Site
                        {
                          OFFSET 0.1 0 0
                        }
                      }
                    }
                  }
                }
                JOINT r_shoulder
                {
                  OFFSET -1.23299 -7.60729 7.53365
                  CHANNELS 6 Xposition Yposition Zposition Zrotation Xrotation Yrotation
                  JOINT r_up_arm
                  {
                    OFFSET -12.9547 3.2495 -3.26872
                    CHANNELS 6 Xposition Yposition Zposition Zrotation Xrotation Yrotation
                    JOINT r_low_arm
                    {
                      OFFSET -29.2081 0.0598081 0.137039
                      CHANNELS 6 Xposition Yposition Zposition Zrotation Xrotation Yrotation
                      JOINT r_hand
                      {
                        OFFSET -24.234 0.0496218 0.113702
                        CHANNELS 6 Xposition Yposition Zposition Zrotation Xrotation Yrotation
                        End Site
                        {
                          OFFSET -0.1 0 0
                        }
                      }
                    }
                  }
                }
              }
            }
          }
        }
      }
    }
  }
  JOINT l_up_leg
  {
    OFFSET 9.23673 -4.20556 2.0327
    CHANNELS 6 Xposition Yposition Zposition Zrotation Xrotation Yrotation
    JOINT l_low_leg
    {
      OFFSET -0.852353 -38.7721 -0.655187
      CHANNELS 6 Xposition Yposition Zposition Zrotation Xrotation Yrotation
      JOINT l_foot
      {
        OFFSET -2.32622 -40.4017 -6.04875
        CHANNELS 6 Xposition Yposition Zposition Zrotation Xrotation Yrotation
        JOINT l_toes
        {
          OFFSET 0.779096 -9.8844 12.4959
          CHANNELS 6 Xposition Yposition Zposition Zrotation Xrotation Yrotation
          End Site
          {
            OFFSET 0 0 0.1
          }
        }
      }
    }
  }
  JOINT r_up_leg
  {
    OFFSET -9.23673 -4.20556 2.0327
    CHANNELS 6 Xposition Yposition Zposition Zrotation Xrotation Yrotation
    JOINT r_low_leg
    {
      OFFSET 0.852353 -38.7721 -0.655187
      CHANNELS 6 Xposition Yposition Zposition Zrotation Xrotation Yrotation
      JOINT r_foot
      {
        OFFSET 2.32622 -40.4017 -6.04875
        CHANNELS 6 Xposition Yposition Zposition Zrotation Xrotation Yrotation
        JOINT r_toes
        {
          OFFSET -0.779096 -9.8844 12.4959
          CHANNELS 6 Xposition Yposition Zposition Zrotation Xrotation Yrotation
          End Site
          {
            OFFSET 0 0 0.1
          }
        }
      }
    }
  }
}
MOTION
Frames: 4
Frame Time: 0.016667
0 93.2929 0 -0 0 -0 0 5.07867 -1.15138 -0 0 -0 0 5.61661 1.07143 -0 0 -0 -1.02604e-17 5.98978 0.11501 -0 0 -0 -1.10457e-17 6.50583 -0.443523 -0 0 -0 -1.97295e-17 7.60548 -1.50593 -0 0 -0 -2.53307e-17 9.49737 -0.914492 -0 0 -0 -2.90401e-17 10.5513 1.57691 -0 0 -0 -1.29193e-17 4.78644 0.715339 -0 0 -0 -1.8116e-17 4.82109 0.421791 -0 0 -0 -2.00958e-17 4.83041 0.765062 -0 0 -0 1.23299 -7.60731 7.53374 -0 0 -0 12.9547 3.2495 -3.26872 -0 0 -0 29.2081 0.0598081 0.137039 -0 0 -0 24.234 0.0496219 0.113701 -0 0 -0 -1.23299 -7.60729 7.53365 -0 0 -0 -12.9547 3.2495 -3.26872 -0 0 -0 -29.2081 0.0598081 0.137039 -0 0 -0 -24.234 0.0496218 0.113702 -0 0 -0 9.23673 -4.20556 2.0327 -0 0 -0 -0.852353 -38.7721 -0.655187 -0 0 -0 -2.32622 -40.4017 -6.04875 -0 0 -0 0.779096 -9.8844 12.4959 -0 0 -0 -9.23673 -4.20556 2.0327 -0 0 -0 0.852353 -38.7721 -0.655187 -0 0 -0 2.32622 -40.4017 -6.04875 -0 0 -0 -0.779096 -9.8844 12.4959 -0 0 -0 
-303.46 92.653 -1154.75 -1.25014 -2.76951 -5.2732 0 5.07867 -1.15138 0.13755 1.19101 0.374586 0 5.61661 1.07143 0.148482 1.60398 0.387615 -1.02604e-17 5.98978 0.11501 0.106839 2.45428 0.496544 -1.10457e-17 6.50583 -0.443523 0.0661238 3.50113 0.50332 -1.97295e-17 7.60548 -1.50593 0.134398 3.6672 0.496153 -2.53307e-17 9.49737 -0.914492 0.304519 3.78161 0.269516 -2.90401e-17 10.5513 1.57691 0.096186 0.532158 -0.278473 -1.29193e-17 4.78644 0.715339 0.393959 4.56939 -0.0899671 -1.8116e-17 4.82109 0.421791 0.941487 -1.95532 -0.194208 -2.00958e-17 4.83041 0.765062 0.418155 -2.38373 3.55017 1.23299 -7.60731 7.53374 -2.87055 2.37834 -3.26891 12.9547 3.2495 -3.26872 -75.4455 21.76 -9.97608 29.2081 0.0598081 0.137039 2.51434 -0.255674 -12.203 24.234 0.0496219 0.113701 -1.02718 -39.515 -2.07309 -1.23299 -7.60729 7.53365 -6.08623 -2.04111 -0.52919 -12.9547 3.2495 -3.26872 70.5292 27.7943 15.0662 -29.2081 0.0598081 0.137039 -11.9867 -13.0153 95.3426 -24.234 0.0496218 0.113702 35.1213 -80.3049 32.6481 9.23673 -4.20556 2.0327 3.99815 0.904036 -5.93702 -0.852353 -38.7721 -0.655187 -0.305125 1.1392 -0.0168513 -2.32622 -40.4017 -6.04875 -0.514269 -2.57785 15.4492 0.779096 -9.8844 12.4959 -8.09029e-17 -6.7638e-16 -1.85842e-16 -9.23673 -4.20556 2.0327 0.838883 -4.39347 16.556 0.852353 -38.7721 -0.655187 0.277612 1.03644 0.0155805 2.32622 -40.4017 -6.04875 -0.633757 3.37541 -14.7915 -0.779096 -9.8844 12.4959 -2.02555e-16 -4.03061e-16 -1.25919e-14 
-303.458 92.6527 -1154.74 -1.25372 -2.73556 -5.35681 0 5.07867 -1.15138 0.137038 1.19018 0.374346 0 5.61661 1.07143 0.148966 1.60181 0.387407 -1.02604e-17 5.98978 0.11501 0.108051 2.45037 0.496734 -1.10457e-17 6.50583 -0.443523 0.0681485 3.49463 0.503779 -1.97295e-17 7.60548 -1.50593 0.137344 3.65964 0.496212 -2.53307e-17 9.49737 -0.914492 0.308138 3.77224 0.268235 -2.90401e-17 10.5513 1.57691 0.0961849 0.532193 -0.278113 -1.29193e-17 4.78644 0.715339 0.397551 4.55074 -0.076636 -1.8116e-17 4.82109 0.421791 0.956001 -1.96311 -0.187668 -2.00958e-17 4.83041 0.765062 0.448781 -2.38996 3.55077 1.23299 -7.60731 7.53374 -2.84368 2.37696 -3.25631 12.9547 3.2495 -3.26872 -75.4756 21.7396 -9.97424 29.2081 0.0598081 0.137039 2.51826 -0.256501 -12.2223 24.234 0.0496219 0.113701 -1.01698 -39.5141 -2.0704 -1.23299 -7.60729 7.53365 -6.09307 -2.03412 -0.535878 -12.9547 3.2495 -3.26872 70.5407 27.8223 15.0785 -29.2081 0.0598081 0.137039 -11.986 -13.0228 95.3791 -24.234 0.0496218 0.113702 35.1164 -80.2883 32.6425 9.23673 -4.20556 2.0327 3.99767 0.894746 -5.89347 -0.852353 -38.7721 -0.655187 -0.303262 1.13225 -0.0167668 -2.32622 -40.4017 -6.04875 -0.481492 -2.58332 15.4483 0.779096 -9.8844 12.4959 -2.06272e-17 -6.73775e-16 -1.8553e-16 -9.23673 -4.20556 2.0327 0.847802 -4.44746 16.6341 0.852353 -38.7721 -0.655187 0.286293 1.06886 0.015987 2.32622 -40.4017 -6.04875 -0.60854 3.35773 -14.7937 -0.779096 -9.8844 12.4959 -3.33082e-16 -3.97421e-16 -1.25878e-14 
-303.442 92.6506 -1154.73 -1.2592 -2.70176 -5.43998 0 5.07867 -1.15138 0.14134 1.1908 0.372303 0 5.61661 1.07143 0.153701 1.60032 0.385892 -1.02604e-17 5.98978 0.11501 0.112496 2.446 0.495621 -1.10457e-17 6.50583 -0.443523 0.0724062 3.48595 0.502919 -1.97295e-17 7.60548 -1.50593 0.141134 3.64892 0.494597 -2.53307e-17 9.49737 -0.914492 0.310886 3.7592 0.265504 -2.90401e-17 10.5513 1.57691 0.0959987 0.532772 -0.277644 -1.29193e-17 4.78644 0.715339 0.400365 4.52552 -0.0629909 -1.8116e-17 4.82109 0.421791 0.961453 -1.97237 -0.181208 -2.00958e-17 4.83041 0.765062 0.464863 -2.39429 3.5451 1.23299 -7.60731 7.53374 -2.82256 2.37864 -3.24582 12.9547 3.2495 -3.26872 -75.5118 21.7154 -9.9703 29.2081 0.0598081 0.137039 2.52212 -0.257317 -12.2413 24.234 0.0496219 0.113701 -1.00239 -39.4869 -2.06167 -1.23299 -7.60729 7.53365 -6.10081 -2.02557 -0.541854 -12.9547 3.2495 -3.26872 70.5315 27.8513 15.0869 -29.2081 0.0598081 0.137039 -11.9853 -13.0307 95.4174 -24.234 0.0496218 0.113702 35.169 -80.2725 32.6933 9.23673 -4.20556 2.0327 3.99167 0.887238 -5.85447 -0.852353 -38.7721 -0.655187 -0.301429 1.1254 -0.0166834 -2.32622 -40.4017 -6.04875 -0.445932 -2.60022 15.4469 0.779096 -9.8844 12.4959 3.84923e-16 -6.56254e-16 -2.0454e-16 -9.23673 -4.20556 2.0327 0.85075 -4.49544 16.7058 0.852353 -38.7721 -0.655187 0.292588 1.09238 0.0162786 2.32622 -40.4017 -6.04875 -0.582572 3.33508 -14.7967 -0.779096 -9.8844 12.4959 -6.00124e-16 -3.85884e-16 -1.25795e-14 
